<svg width="36" height="36" viewBox="0 0 36 36" fill="none" xmlns="http://www.w3.org/2000/svg">
<path d="M7.5 6.5C7.5 5.39543 8.39543 4.5 9.5 4.5H17.75C17.8881 4.5 18 4.61193 18 4.75V13C18 14.1046 18.8954 15 20 15H28.25C28.3881 15 28.5 15.1119 28.5 15.25V29.5C28.5 30.6046 27.6046 31.5 26.5 31.5H9.5C8.39543 31.5 7.5 30.6046 7.5 29.5V6.5Z" fill="white"/>
<path d="M19.5 12.5V5.10355C19.5 4.88083 19.7693 4.76929 19.9268 4.92678L28.0732 13.0732C28.2307 13.2307 28.1192 13.5 27.8964 13.5H20.5C19.9477 13.5 19.5 13.0523 19.5 12.5Z" fill="#BABABA"/>
</svg>
