<svg width="32" height="32" viewBox="0 0 32 32" fill="none" xmlns="http://www.w3.org/2000/svg">
<path d="M17.5619 4H11.9998C9.48568 4 8.2286 4 7.44755 4.78105C6.6665 5.5621 6.6665 6.81918 6.6665 9.33333V22.6667C6.6665 25.1808 6.6665 26.4379 7.44755 27.219C8.2286 28 9.48568 28 11.9998 28H19.9998C22.514 28 23.7711 28 24.5521 27.219C25.3332 26.4379 25.3332 25.1808 25.3332 22.6667V11.7712C25.3332 11.2262 25.3332 10.9537 25.2317 10.7087C25.1302 10.4637 24.9375 10.271 24.5521 9.88562L19.4476 4.78105C19.0622 4.39567 18.8695 4.20299 18.6245 4.10149C18.3794 4 18.1069 4 17.5619 4Z" stroke="#33363F" stroke-width="2"/>
<path d="M17.3335 4V9.33333C17.3335 10.5904 17.3335 11.219 17.724 11.6095C18.1145 12 18.7431 12 20.0002 12H25.3335" stroke="#33363F" stroke-width="2"/>
</svg>
