<svg width="36" height="36" viewBox="0 0 36 36" fill="none" xmlns="http://www.w3.org/2000/svg">
<path d="M4.5 11.5C4.5 9.61438 4.5 8.67157 5.08579 8.08579C5.67157 7.5 6.61438 7.5 8.5 7.5H13.3431C14.1606 7.5 14.5694 7.5 14.9369 7.65224C15.3045 7.80448 15.5935 8.09351 16.1716 8.67157L19.5 12V16.5H4.5V12V11.5Z" fill="#F8C912"/>
<path d="M4.5 15.2C4.5 14.0799 4.5 13.5198 4.71799 13.092C4.90973 12.7157 5.21569 12.4097 5.59202 12.218C6.01984 12 6.5799 12 7.7 12H28.3C29.4201 12 29.9802 12 30.408 12.218C30.7843 12.4097 31.0903 12.7157 31.282 13.092C31.5 13.5198 31.5 14.0799 31.5 15.2V25.3C31.5 26.4201 31.5 26.9802 31.282 27.408C31.0903 27.7843 30.7843 28.0903 30.408 28.282C29.9802 28.5 29.4201 28.5 28.3 28.5H7.7C6.5799 28.5 6.01984 28.5 5.59202 28.282C5.21569 28.0903 4.90973 27.7843 4.71799 27.408C4.5 26.9802 4.5 26.4201 4.5 25.3V15.2Z" fill="#FEE047"/>
</svg>
